# xmcd
# 
# Track frame offsets:
#     150
#     21287
#     37502
#     54205
#     69695
#     93729
#     114697
#     132772
#     151715
#     175462
#     195720
#     220375
#     240325
#     257567
#     277282
#     293412
#     310677
#     325532
# 
# Disc length: 4573
# 
# Revision: 0
# Processed by: cddbd v1.5.2PL0 Copyright (c) Steve Scherf et al.
# Submitted via: BonkEnc v1.0.8
# 
DISCID=f611db12
DTITLE=Memphis LA Blusera - MOSCATO, PIZZA Y FAINA
DYEAR=0
DGENRE=Blues
TTITLE0=Moscato, pizza y faina
TTITLE1=Blues de las 6 y 30
TTITLE2=Nena seguí de largo
TTITLE3=El amor en movimiento
TTITLE4=Lo mismo boogie
TTITLE5=La bifurcada
TTITLE6=Boogie del preso
TTITLE7=Montón de nada
TTITLE8=Chau catalana
TTITLE9=El trepador
TTITLE10=Alma bajo la lluvia
TTITLE11=Tonto rompecabezas
TTITLE12=Sopa de letras
TTITLE13=Blues de Rosario
TTITLE14=Chica free love
TTITLE15=El escruche
TTITLE16=Boogie mamá
TTITLE17=El estibador
EXTD=20 Aniversario
EXTT0=
EXTT1=
EXTT2=
EXTT3=
EXTT4=
EXTT5=
EXTT6=
EXTT7=
EXTT8=
EXTT9=
EXTT10=
EXTT11=
EXTT12=
EXTT13=
EXTT14=
EXTT15=
EXTT16=
EXTT17=
PLAYORDER=
